<svg xmlns="http://www.w3.org/2000/svg" version="1.1" xmlns:xlink="http://www.w3.org/1999/xlink" xmlns:svgjs="http://svgjs.com/svgjs" width="1440" height="560" preserveAspectRatio="none" viewBox="0 0 1440 560"><g mask="url(&quot;#SvgjsMask1002&quot;)" fill="none"><rect width="1440" height="560" x="0" y="0" fill="rgba(115, 75, 109, 0.29)"></rect><path d="M721.38 488.73L730.74 488.73L730.74 517.31L721.38 517.31z" stroke="#e73635"></path><path d="M1120.16 234.48L1158.43 234.48L1158.43 283L1120.16 283z" fill="#e73635"></path><path d="M504.56 321.64L544.72 321.64L544.72 361.8L504.56 361.8z" stroke="#d3b714"></path><path d="M1064.03 294.87L1073.7 294.87L1073.7 315.5L1064.03 315.5z" stroke="#037b0b"></path><path d="M1026.57 500.09L1065.1 500.09L1065.1 538.62L1026.57 538.62z" stroke="#037b0b"></path><path d="M474.7 100.71 a19.54 19.54 0 1 0 39.08 0 a19.54 19.54 0 1 0 -39.08 0z" fill="#e73635"></path><path d="M702.97 291.23 a11.02 11.02 0 1 0 22.04 0 a11.02 11.02 0 1 0 -22.04 0z" fill="#037b0b"></path><path d="M389.6 157.86 a55.66 55.66 0 1 0 111.32 0 a55.66 55.66 0 1 0 -111.32 0z" fill="#d3b714"></path><path d="M941.12 143.28 a27.41 27.41 0 1 0 54.82 0 a27.41 27.41 0 1 0 -54.82 0z" fill="#d3b714"></path><path d="M642.75 366.49L671.74 366.49L671.74 395.48L642.75 395.48z" stroke="#e73635"></path><path d="M151.18 184.55 a21.32 21.32 0 1 0 42.64 0 a21.32 21.32 0 1 0 -42.64 0z" fill="#037b0b"></path><path d="M471.85 255.58L521.4 255.58L521.4 305.13L471.85 305.13z" stroke="#037b0b"></path><path d="M321.66 219.6 a47.13 47.13 0 1 0 94.26 0 a47.13 47.13 0 1 0 -94.26 0z" fill="#d3b714"></path><path d="M656.8 155.96L685.46 155.96L685.46 195.14L656.8 195.14z" stroke="#d3b714"></path><path d="M412.38 344.8 a49.17 49.17 0 1 0 98.34 0 a49.17 49.17 0 1 0 -98.34 0z" fill="#037b0b"></path><path d="M706.02 458.09L733.74 458.09L733.74 485.81L706.02 485.81z" stroke="#d3b714"></path><path d="M1116.64 350.25a16.07 16.07 0 1 0-10.28-30.45z" fill="#037b0b"></path><path d="M134.86 31.15L187.3 31.15L187.3 37.9L134.86 37.9z" fill="#e73635"></path><path d="M301.44 534.64L336.24 534.64L336.24 588.15L301.44 588.15z" fill="#037b0b"></path><path d="M9.32 154.88L29.94 154.88L29.94 167.82L9.32 167.82z" fill="#e73635"></path><path d="M872.79 341.46L872.85 341.46L872.85 382.34L872.79 382.34z" stroke="#037b0b"></path><path d="M622.34 213.78 a54.68 54.68 0 1 0 109.36 0 a54.68 54.68 0 1 0 -109.36 0z" stroke="#e73635"></path><path d="M609.96 85.84a34 34 0 1 0 58.9 33.98z" fill="#e73635"></path><path d="M332.13 175.66L378.64 175.66L378.64 222.17L332.13 222.17z" stroke="#d3b714"></path><path d="M1016.13 174.86 a9.46 9.46 0 1 0 18.92 0 a9.46 9.46 0 1 0 -18.92 0z" fill="#d3b714"></path><path d="M425.65 312.9a24.02 24.02 0 1 0 37.32 30.25z" stroke="#037b0b"></path><path d="M1306.59 25.54L1326.38 25.54L1326.38 45.33L1306.59 45.33z" stroke="#e73635"></path><path d="M1053.69 312.49 a32.96 32.96 0 1 0 65.92 0 a32.96 32.96 0 1 0 -65.92 0z" stroke="#d3b714"></path><path d="M307.88 11.84a4.52 4.52 0 1 0-0.05 9.04z" stroke="#037b0b"></path><path d="M77.24 468.33L83.2 468.33L83.2 517.3L77.24 517.3z" stroke="#037b0b"></path><path d="M970.5 470.94a36.47 36.47 0 1 0-20.05-70.12z" stroke="#e73635"></path><path d="M1241.71 61.68a49.3 49.3 0 1 0-98.21-8.68z" stroke="#e73635"></path><path d="M1086.3 6.04 a2.46 2.46 0 1 0 4.92 0 a2.46 2.46 0 1 0 -4.92 0z" stroke="#e73635"></path></g><defs><mask id="SvgjsMask1002"><rect width="1440" height="560" fill="#ffffff"></rect></mask></defs></svg>