<svg xmlns="http://www.w3.org/2000/svg" version="1.1" xmlns:xlink="http://www.w3.org/1999/xlink" xmlns:svgjs="http://svgjs.com/svgjs" width="1440" height="560" preserveAspectRatio="none" viewBox="0 0 1440 560"><g mask="url(&quot;#SvgjsMask1002&quot;)" fill="none"><rect width="1440" height="560" x="0" y="0" fill="#0e2a47"></rect><circle r="6.465" cx="957.1850000000001" cy="267.85499999999996" filter="url(#SvgjsFilter1003)" fill="rgba(51, 121, 194, 0.58)"></circle><circle r="5.235" cx="867.775" cy="173.275" filter="url(#SvgjsFilter1003)" fill="rgba(51, 121, 194, 0.58)"></circle><circle r="6.55" cx="1179.6399999999999" cy="306.1" filter="url(#SvgjsFilter1003)" fill="rgba(51, 121, 194, 0.58)"></circle><circle r="8.425" cx="1299.2549999999999" cy="494.255" filter="url(#SvgjsFilter1003)" fill="rgba(51, 121, 194, 0.58)"></circle><circle r="7.265" cx="672.805" cy="186.80499999999998" filter="url(#SvgjsFilter1003)" fill="rgba(51, 121, 194, 0.58)"></circle><circle r="5.895" cx="633.685" cy="387.10499999999996" filter="url(#SvgjsFilter1003)" fill="rgba(51, 121, 194, 0.58)"></circle><circle r="4.965" cx="458.875" cy="422.635" filter="url(#SvgjsFilter1003)" fill="rgba(51, 121, 194, 0.58)"></circle><circle r="6.755" cx="153.345" cy="439.455" filter="url(#SvgjsFilter1003)" fill="rgba(51, 121, 194, 0.58)"></circle><circle r="7.225" cx="227.825" cy="233.945" filter="url(#SvgjsFilter1003)" fill="rgba(51, 121, 194, 0.58)"></circle><circle r="5.885" cx="196.015" cy="197.05499999999998" filter="url(#SvgjsFilter1003)" fill="rgba(51, 121, 194, 0.58)"></circle><circle r="5.125" cx="178.075" cy="489.935" filter="url(#SvgjsFilter1003)" fill="rgba(51, 121, 194, 0.58)"></circle><circle r="7.935" cx="345.425" cy="197.895" filter="url(#SvgjsFilter1003)" fill="rgba(51, 121, 194, 0.58)"></circle><circle r="5.645" cx="70.155" cy="502.92499999999995" filter="url(#SvgjsFilter1003)" fill="rgba(51, 121, 194, 0.58)"></circle><circle r="6.545" cx="540.035" cy="294.665" filter="url(#SvgjsFilter1003)" fill="rgba(51, 121, 194, 0.58)"></circle><circle r="4.88" cx="573.55" cy="411.86" filter="url(#SvgjsFilter1003)" fill="rgba(51, 121, 194, 0.58)"></circle><circle r="4.815" cx="1265.355" cy="529.075" filter="url(#SvgjsFilter1003)" fill="rgba(51, 121, 194, 0.58)"></circle><circle r="5.115" cx="275.875" cy="364.265" filter="url(#SvgjsFilter1003)" fill="rgba(51, 121, 194, 0.58)"></circle><circle r="8.27" cx="724.65" cy="352.81" filter="url(#SvgjsFilter1003)" fill="rgba(51, 121, 194, 0.58)"></circle><circle r="8.66" cx="570.6" cy="528.67" filter="url(#SvgjsFilter1003)" fill="rgba(51, 121, 194, 0.58)"></circle><circle r="6.95" cx="289.03" cy="70.74" filter="url(#SvgjsFilter1003)" fill="rgba(51, 121, 194, 0.58)"></circle><path d="M576.5 464.4L547.6 509 501.3 518.5 516.1 473.6 563.7 450.1C563.7 450.1 564.2 449.6 564.2 449.6 565.1 448.8 565.2 447 564.9 445.6 564.1 443.7 561.8 443.1 560.4 444.4L518.9 465.1 526 443.3 544.2 434C544.2 434 544.7 433.5 544.7 433.5 545.7 432.7 545.8 430.9 545.4 429.5 544.6 427.6 542.4 427.1 540.9 428.3L528.3 434.4 533.8 418.4C534.3 417.1 533.1 414.7 531.8 414.2 530 413.2 528.1 414.9 527.6 416.2L522.1 432.2 516 419.7C515.2 417.8 513 417.2 511.6 418.5 509.7 419.3 509.1 421.5 510.4 423L519.8 441.2 512.2 462.5 491.5 421C490.7 419.1 488.5 418.5 487 419.8 485.2 420.6 484.6 422.8 485.9 424.3L509.4 471.9 494.6 516.8 462.6 480.9 465.7 427.6C465.8 425.8 464.5 424.4 462.7 424.3 460.9 424.2 459.5 425.5 459.4 427.3L456.7 474.3 441.4 457.1 442.5 437.2C442.6 435.4 441.3 433.9 439.5 433.8 437.7 433.7 436.3 435 436.2 436.8L435.4 450.4 423.5 437C422.7 435.1 420.4 435.4 419 436.7 417.5 438 417.4 439.8 418.7 441.2L429.8 453.7 416.2 452.9C414.4 452.8 413 454.1 412.9 455.9S414 459.1 415.8 459.2L435.7 460.4 451.1 477.6 404.1 474.8C402.3 474.7 400.8 476 400.7 477.8 400.6 479.6 401.9 481.1 403.7 481.2L457 484.2 488.5 519.6 442.2 529.2 398.9 500.8C397.2 499.8 395.3 500.6 393.9 501.9 392.9 503.7 393.7 505.5 395 507L433.8 532.3 411.4 536.9 394.3 525.5C392.6 524.5 390.7 525.3 389.3 526.6 388.3 528.3 389.1 530.2 389.9 531.1L401.7 538.6 385.2 542.2C383.8 542.6 381.9 544.3 382.7 546.1 383.5 548 384.8 549.4 386.7 548.6L403.2 545.1 395.7 556.9C394.7 558.6 395.5 560.5 396.4 561.4 397.7 562 399.5 562.1 400.4 561.2 400.4 561.2 400.9 560.8 400.9 560.8L412.3 543.8 434.8 539.2 409.4 578.1C408.4 579.8 409.2 581.7 410.1 582.6 411.4 583.2 413.2 583.3 414.2 582.4 414.2 582.4 414.7 582 414.7 582L443.5 537.4 489.9 527.8 475 572.8 427.4 596.3C425.6 597.1 425 599.4 426.3 600.8 427.1 602.6 429.3 603.2 430.7 601.9L472.3 581.2 465.1 603 446.9 612.4C445 613.2 444.5 615.4 445.7 616.9 446.5 618.7 448.8 619.3 450.2 618L462.8 612 457.3 628C456.8 629.3 458 631.6 459.4 632.2 460.7 632.7 462.1 632.3 463 631.5 463.5 631 464 630.6 464 629.7L469.5 613.7 475.6 626.3C476.4 628.2 478.6 628.7 480 627.5 480 627.5 480.5 627 480.5 627 481.5 626.2 481.6 624.4 481.2 623L471.8 604.8 479 583 499.7 624.5C500.5 626.4 502.7 627 504.2 625.7 504.2 625.7 504.6 625.2 504.6 625.2 505.6 624.4 505.7 622.6 505.3 621.2L481.8 573.6 496.6 528.7 528.1 564 525 617.4C524.9 619.2 526.2 620.6 528 620.7 529.8 620.8 531.3 619.5 531.4 617.7L534.5 571.2 549.8 588.4 548.7 608.3C548.6 610.1 549.9 611.5 551.7 611.6S554.9 610.5 555 608.7L555.8 595.1 566.9 607.5C568.1 609 569.9 609.1 571.4 607.8 572.8 606.5 572.9 604.7 571.6 603.3L560.6 590.8 574.1 591.6C575 591.7 575.9 591.7 576.9 590.9S577.9 589.1 577.9 588.2C578 586.4 576.8 585 575 584.9L555.1 583.7 539.8 566.5 586.7 569.2C587.6 569.3 588.5 569.3 589.5 568.5 590 568.1 590.5 566.7 590.6 565.8 590.7 564 589.4 562.6 587.6 562.5L534.3 559.4 502.8 524.1 549.1 514.5 593.7 543.3C595 543.9 596.8 544 597.8 543.1 597.8 543.1 598.2 542.7 598.2 542.7 599.3 541 598.5 539.1 597.6 538.1L558.7 512.8 581.2 508.2 598.2 519.6C599.5 520.1 601.4 520.2 602.3 519.4 602.3 519.4 602.8 518.9 602.8 518.9 603.8 517.2 603 515.3 602.1 514.4L590.3 506.9 606.9 503.3C607.3 502.9 608.2 502.9 608.7 502.5 609.7 501.7 610.2 500.3 609.8 499 609 497.1 607.8 495.7 605.9 496.5L589.4 500 596.9 488.2C597.9 486.5 597.1 484.6 596.2 483.7 594.5 482.7 592.6 483.5 591.6 484.3L580.2 501.3 557.8 505.9 583.1 467C584.1 465.3 583.3 463.4 582.5 462.5 579.8 462.3 577.5 462.6 576.5 464.4Z" fill="rgba(51, 121, 194, 0.58)"></path><path d="M1265 298.7L1254.7 281.5 1268.2 280.8C1269.6 280.9 1271.1 279.5 1271.5 277.5 1271 275.8 1269.6 274.3 1268.2 274.2L1250.4 274.7 1241 258.6 1277.1 257.9C1279.4 257.7 1280.9 256.4 1280.4 254.6 1280.7 252.6 1279.3 251.1 1277 251.3L1237.2 252.2 1228.3 237.8 1247 203.5 1261.9 203 1283.5 239.6C1284.1 239.9 1284.6 240.2 1285.2 240.5 1285.7 240.8 1287.2 240.8 1288 240.6 1290.1 239.5 1290.4 237.5 1289.1 236L1269.4 202.7 1287.7 202.5 1298.3 219.2C1298 219.8 1298.5 220.1 1299.1 220.4 1300.2 221 1301.7 221 1302.8 220.2 1304 219.4 1304.4 217.4 1303.9 215.7L1295.2 202.2 1318.1 201.6C1319.6 201.7 1321 200.3 1321.4 198.3 1320.9 196.6 1319.5 195.1 1318.1 195L1296.6 195.6 1303 183.9C1304 182.2 1302.9 180.1 1301.8 179.5 1300.1 178.6 1297.8 178.8 1296.9 180.5L1288.6 195.6 1270.2 195.8 1287.4 164.4C1288.3 162.7 1287.8 161 1286.2 160 1284.5 159.1 1282.7 159.6 1281.8 161.3L1262.8 196.1 1247 197 1226.7 163.3 1233.8 150.4 1274.5 149.3C1276.5 149.7 1278.3 147.7 1277.8 146 1278.2 144 1276.5 143.1 1274.5 142.7L1237.5 143.6 1246.4 127.3 1264.7 127.2C1266.2 127.2 1268 125.3 1268 123.8S1266.1 120.6 1264.1 120.3L1250.1 120.6 1260.9 101C1261.8 99.3 1260.7 97.2 1259 96.3 1257.9 95.7 1255.6 95.9 1254.7 97.6L1243.9 117.2 1236.1 104.9C1235.3 103.7 1233.6 102.8 1231.5 103.9 1230.4 104.7 1229.7 107.2 1230.5 108.4L1240.2 124 1231.3 140.2 1212.2 108.6C1210.8 107.1 1209.1 106.2 1207.1 107.3 1205.9 108.1 1205.2 110.6 1206 111.8L1227.6 147 1220.6 159.9 1181.3 161 1173.5 147.3 1192.5 112.5C1193.5 110.8 1193 109 1191.3 108.1 1189.6 107.2 1187.3 107.4 1186.4 109.1L1169.2 140.5 1159.4 125 1167.7 109.8C1168.6 108.1 1168.1 106.4 1166.5 105.5 1164.8 104.5 1163 105.1 1162.1 106.7L1155.7 118.5 1144.6 100.1C1143.8 98.9 1141.2 98.2 1140.1 99 1138.6 100.4 1137.7 102.1 1139 103.6L1150.3 122.9 1134.9 123.2C1133.1 123.7 1131.6 125.1 1131.6 126.5 1131.5 127.9 1132.4 129.1 1133.5 129.7 1133.5 129.7 1134 130 1134.9 129.8L1154.7 129.7 1164.4 145.2 1125.7 146.6C1123.7 146.3 1122.2 147.6 1122.4 149.9 1122.7 150.8 1122.9 151.7 1124 152.3 1124.6 152.6 1125.2 152.9 1125.7 153.2L1168.2 151.6 1175.7 164.5 1157 198.8 1140.1 199 1119.3 165C1118.2 163 1116.2 162.6 1114.7 164 1113 164.5 1112.6 166.5 1113.7 168.5L1132.6 199.3 1114 200 1104.8 184.8C1104 183.6 1102 183.3 1100.3 183.8 1098.8 185.2 1097.8 186.8 1099.2 188.3L1106 200 1085.9 200.7C1083.9 200.4 1083 202 1082.6 204 1082.9 204.9 1083.7 206.1 1084.8 206.7 1084.8 206.7 1085.4 207 1085.9 207.3L1107.4 206.7 1099.7 220.7C1099.1 221.8 1099.3 224.1 1101 225.1 1102.7 226 1104.7 224.9 1105.4 223.8L1114.9 206.4 1133.5 205.6 1114.8 239.9C1113.9 241.6 1114.9 243.6 1116.6 244.5S1120 244.9 1121 243.3L1141.5 205.6 1157 205.4 1177.3 239.1 1169.3 253.6 1128 254.4C1126.3 254.9 1124.8 256.3 1124.4 258.3 1124.7 259.2 1125.5 260.3 1126.6 260.9 1127.2 261.3 1127.7 261.6 1128.6 261.3L1165.6 260.4 1156.7 276.7 1138 277.4C1136.6 277.4 1135.1 278.7 1134.7 280.7 1135.3 282.5 1136.6 283.9 1138.1 284L1153 283.4 1143.1 301.4C1142.5 302.5 1143.3 305.1 1144.4 305.7 1146.1 306.6 1148.7 305.9 1149.3 304.8L1159.2 286.8 1166.1 299.4C1166.7 299.7 1167.3 300 1167.8 300.3 1168.9 300.9 1170.4 300.9 1171.2 300.7 1172.7 299.3 1173.1 297.3 1172.6 295.6L1162.8 280 1171.8 263.8 1190.9 295.4C1192 297.5 1194 297.8 1195.2 297 1197.2 295.9 1197.6 293.9 1197 292.2L1175.4 257 1183.4 242.4 1222.7 241.3 1230.8 254.5 1210.2 292.1C1209.3 293.8 1209.8 295.5 1211.5 296.5 1213.2 297.4 1214.9 296.9 1215.8 295.2L1234.6 260.9 1244 277 1234.5 294.4C1233.9 295.6 1234.6 298.2 1236.3 299.1 1238 300 1240 299 1240.7 297.8L1248.3 283.8 1259.4 302.2C1260 302.6 1260 302.6 1260.5 302.9 1261.6 303.5 1263.1 303.5 1263.9 303.3 1265.4 301.9 1265.8 299.9 1265 298.7ZM1187.1 235.7L1182.8 235.5 1180.9 232.3 1164.5 205.1 1162.6 201.8 1164.4 198.5 1179.5 171 1181.3 167.6 1185.1 167.5 1216.9 166.6 1220.6 166.5 1223.1 170 1239 196.9 1241.4 200.5 1239.6 203.8 1224.5 231.4 1222.7 234.7 1218.4 234.6 1187.1 235.7Z" fill="rgba(51, 121, 194, 0.58)"></path><path d="M841.7 434.4L795.6 439.6 785.4 431.9 789.6 403.6 801.6 398.6 844.2 417.2C844.7 417.3 844.7 417.3 845.3 417.4 846.4 417.5 847.6 417.1 848.4 415.5 848.6 413.9 848.2 412.7 846.6 411.9L809.4 395.7 828 388.2 844.5 395.2C844.5 395.2 845.1 395.3 845.1 395.3 846.2 395.4 847.4 395 848.2 393.4 848.9 392.4 848 390.6 846.4 389.8L835.8 384.9 849.6 379.5C850.8 379.1 851.6 377.5 851.3 375.8S848.8 373.7 847 374L833.8 379.5 838.2 368.8C839 367.2 838.1 365.4 836.5 364.6 835.4 364.4 833.7 364.7 832.9 366.3L826 382.9 806.8 390.3 822.9 353C823.7 351.4 822.9 349.6 821.8 348.9 820.2 348.6 818.4 348.9 817.6 350.5L799.6 393.2 787 398.1 765.1 380.8 767.1 367.5 804 339.5C805.2 338.5 805.5 336.9 804.5 335.6S801.9 334.1 800.6 335L768.2 359.7 771.2 339.2 785.1 328.8C786.4 327.9 786.7 326.2 785.8 324.4S783.2 322.9 781.9 323.8L772.3 331.5 774.5 316.5C774.7 314.9 773.2 313.5 771.6 313.3 769.9 313 768.6 314 768.4 315.6L766.2 330.6 759.1 321.1C758.2 319.3 756.6 319 755.2 320.5 754 321.5 753.7 323.1 754.7 324.4L765.1 338.4 762.1 358.9 738 325.9C737.1 324.7 734.9 324.3 733.6 325.3S732.1 327.9 733 329.2L761 366.6 759 379.9 732.6 390.2 722.5 382 717.3 335.9C717 334.2 715.4 333.4 713.8 333.2 712 333.5 711.2 335.1 711 336.7L715.9 377 700.2 364.6 698.2 346.7C697.9 345 696.3 344.2 694.7 344 693.5 344.4 692.1 345.9 692.4 347.6L693.6 359.1 681.9 350C680.9 349.3 679.1 349.6 677.9 350.6 677.1 352.2 677.4 353.9 678.4 354.6L690.1 363.7 678 365.3C676.8 365.7 675.4 367.2 675.8 368.4 675.6 370.1 676.6 370.8 678.3 371 678.3 371 678.8 371.1 678.8 371.1L696.7 369.2 712.4 381.6 672.1 386.5C670.3 386.8 669.1 387.8 669.4 389.5 669.7 391.3 670.7 392 671.8 392.1 672.4 392.2 672.4 392.2 672.4 392.2L719 386.6 729.1 394.8 725 423.1 713.1 427.6 669.9 409.4C668.8 408.7 667 409.6 666.3 410.6 665.5 412.2 666.4 414 668 414.8L705.2 431 686.6 438.4 670.1 431.5C668.5 430.7 666.7 431 666.5 432.7 665.7 434.3 666.6 436.1 667.6 436.8L678.8 441.3 665 446.6C663.8 447.6 663 449.1 663.3 450.9 663.8 451.5 664.8 452.2 665.9 452.4 666.4 452.5 666.4 452.5 667.1 452L680.9 446.7 676.4 457.9C675.6 459.5 676.6 460.7 677.6 461.5 678.1 461.5 678.1 461.5 678.7 461.6 679.8 461.8 681 461.4 681.7 460.4L688.6 443.8 707.3 436.3 691.1 473.6C690.9 475.3 691.2 477 692.8 477.3 693.3 477.9 693.3 477.9 693.9 478 695 478.1 696.2 477.2 697 476.2L715.1 433 727.1 428.5 749.5 445.9 747.6 458.6 710.2 486.6C708.9 487.5 708.6 489.7 709.5 491S712.7 492.6 713.9 491.6L746.4 466.9 743.5 486.9 729.4 497.9C728.2 498.8 727.9 500.5 728.9 501.7 729.8 503 731.5 503.2 732.8 502.3L742.3 495.2 740.1 510.2C739.9 511.3 740.8 513.1 742.5 513.3 744.1 513.6 746 512.1 746.2 511L748.4 496.1 755.5 505.6C756 506.2 756.4 506.9 757 506.9 758.1 507.1 758.7 506.6 759.4 506.2 760.6 505.2 760.9 503.6 759.9 502.3L749.6 487.8 752.5 467.8 776.6 500.7C777 501.4 777.6 501.5 778.7 501.6 779.3 501.7 779.8 501.8 780.4 501.3 781.7 500.4 782 498.1 781.1 496.9L753.7 459.5 755.6 446.8 781.4 436.4 792.1 444.2 797.3 490.7C797.7 491.9 798.6 493.2 799.7 493.4 800.3 493.4 800.3 493.4 800.3 492.9 802 493.1 803.4 491.6 803 489.9L798.2 449.6 814.4 462.1 816.4 479.9C816.8 481.1 817.8 481.8 818.9 482 818.9 482 819.5 482.1 819.5 482.1 821.1 482.3 822.5 480.8 822.2 479.1L820.5 467 832.2 476C832.7 476.6 833.2 476.7 833.8 476.8 834.9 477 836.1 476.6 836.2 476 837.5 474.5 837.2 472.8 836.3 471.5L824.6 462.4 836.1 461.3C837.8 461 839.2 459.5 838.8 457.7 838.4 456.5 836.9 455.2 835.8 455.6L817.9 457.5 802.2 445 842.5 440.2C844.3 439.8 845.1 438.3 845.3 436.6 844.9 435.4 843.4 434.1 841.7 434.4ZM783 406L779.8 427.6 779.3 431 776.3 432.2 756.5 440.1 753 441.3 750.4 439.2 733.7 426 731.1 424 731.6 420.6 734.8 399 735.2 395.7 738.3 394.4 758.1 386.6 761.1 385.3 764.2 387.5 780.9 400.6 783.5 402.7 783 406Z" fill="rgba(51, 121, 194, 0.58)"></path><path d="M1204.1 355.9L1227.9 377.1 1228.4 388.7 1220.3 381.5C1219.7 380.5 1218.5 380.9 1217.5 381.5 1217 382.3 1217 383.7 1217.8 384.2L1228.7 394.3 1229.4 405.7 1219.3 400.4 1214.8 386.1C1214.8 386.1 1214.5 385.8 1214.5 385.8 1214.1 385.1 1213 384.9 1212.1 385 1211.1 385.7 1210.6 386.4 1211 387.7L1214.3 397.9 1204.2 392.6 1194 362.4C1194 362.4 1194.1 361.9 1194.1 361.9 1193.7 361.2 1192.6 361 1191.7 361.1 1190.5 361.4 1189.9 362.7 1190.6 363.7L1199.2 390.1 1186.6 384 1182.7 372.2C1182.7 372.2 1182.7 372.2 1182.5 371.9 1182.1 371.2 1181.3 370.7 1180.4 370.8 1179.4 371.5 1178.6 372.5 1178.9 373.7L1181.6 381.5 1172.5 377C1171.5 376.2 1170.5 376.8 1170 377.6 1169.2 378.6 1169.5 379.8 1170.9 380.4L1179.7 385.1 1172 387.3C1171 387.9 1170.2 388.9 1170.9 389.9 1171.2 391.2 1172 391.6 1173.2 391.3L1185 387.4 1197.3 393.7 1170.6 402.6C1169.7 402.7 1169.1 404 1169.4 405.2 1169.9 405.9 1170.8 406.7 1172.1 406.4L1202.2 396.2 1212.4 401.5 1202.1 404.9C1200.9 405.2 1200.7 406.3 1201 407.5 1201.1 408.4 1202.4 409 1203.3 408.9L1217.4 404 1227.8 409.1 1218.1 415.5 1203.7 412.4C1202.6 412.2 1201.6 412.9 1201.4 414 1200.9 414.7 1201.8 416.1 1202.9 416.3L1213.4 418.5 1203.7 424.9 1172.5 418C1171.4 417.8 1170.4 418.4 1170.2 419.6 1169.9 420.7 1170.6 421.7 1171.7 421.9L1199 427.9 1187.7 435.4 1175.5 432.8C1174.4 432.6 1173.4 433.2 1173.1 434.3 1172.9 435.4 1173.6 436.5 1174.7 436.7L1182.6 438.6 1174.3 444.1C1173.3 444.8 1173 445.9 1173.7 446.9 1174.3 447.9 1175.4 448.1 1176.4 447.5L1184.8 442 1183.2 449.7C1183 450.9 1183.6 451.9 1184.7 452.1S1186.8 451.7 1187.1 450.6L1189.5 438.9 1201.2 431.3 1195.5 458.4C1195.3 459.5 1196 460.5 1197.1 460.8 1198.2 461 1199.2 460.3 1199.4 459.2L1205.9 428.2 1215.6 421.9 1213.4 432.4C1213.2 433.5 1213.8 434.5 1215 434.7 1216.1 435 1217.1 434.3 1217.3 433.2L1220.3 418.8 1229.7 412.7 1230.3 423.8 1220.4 435C1219.9 435.8 1219.9 437.2 1220.7 437.7 1221.7 438.5 1222.6 438.4 1223.6 437.7L1230.8 429.7 1231.3 440.8 1210.1 464.7C1209.3 465.6 1209.4 466.5 1210.1 467.5 1211.1 468.3 1212.3 468 1213 467.6L1231.8 446.7 1232.3 460.6 1224.4 469.7C1223.4 470.3 1223.7 471.5 1224.4 472.6 1225.1 473 1226.6 473 1227.4 472L1232.6 466.2 1233.4 476.2C1233.2 477.3 1234.2 478.1 1235.6 478.1 1236.5 478 1237.3 477 1237.2 476.1L1236.7 465.9 1242.8 471.5C1243.8 472.3 1245 472 1245.4 471.2 1246.5 470.5 1246.3 469.7 1245.9 469 1245.7 468.7 1245.7 468.7 1245.5 468.3L1236.5 460.4 1235.9 446.4 1256.6 464.9C1257.3 465.9 1258.5 465.6 1259.5 464.9 1259.9 464.1 1259.8 463.2 1259.4 462.6 1259.2 462.2 1259.2 462.2 1259.2 462.2L1235.4 440.5 1234.9 429.4 1242.9 436.6C1243.9 437.3 1244.8 437.2 1245.8 436.6 1246.2 435.8 1246.5 434.7 1246 434 1245.8 433.7 1245.8 433.7 1245.6 433.4L1234.4 423.5 1233.8 412.4 1243.7 417.4 1248.6 431.4C1248.9 432.6 1250.2 433.2 1251.1 433.1 1252.1 432.4 1252.9 431.4 1252.3 430.4L1248.9 420.2 1259.2 425 1269.2 455.7C1269.3 456.6 1270.7 457.1 1271.5 457 1272.5 456.4 1273.3 455.4 1273 454.2L1264.4 427.8 1276.6 434.1 1280.3 445.6C1280.6 446.8 1282 447.4 1283 446.7 1283.8 446.6 1284.6 445.6 1284.3 444.4L1281.6 436.6 1290.8 441.1C1291.6 441.6 1292.8 441.3 1293.6 440.3 1293.7 439.7 1293.6 438.8 1293.1 438.2 1293.1 438.2 1292.9 437.8 1292.7 437.5L1283.5 433 1291.3 430.3C1292.2 430.2 1292.8 428.8 1292.7 427.9 1292.5 427.6 1292.5 427.6 1292.5 427.6 1291.8 426.6 1290.7 426.4 1290 426.8L1278.6 430.5 1266 424.4 1292.7 415.5C1293.7 414.9 1294.1 414.1 1293.8 412.9 1293.8 412.9 1293.6 412.5 1293.6 412.5 1293.2 411.9 1292.4 411.4 1291.2 411.7L1260.8 421.5 1250.9 416.6 1261.1 413.2C1262.1 412.6 1262.9 411.6 1262.2 410.6 1262.6 410.3 1262.3 410 1262.3 410 1261.9 409.3 1260.8 409.1 1259.9 409.2L1245.9 414.1 1235.7 408.8 1245.1 402.6 1259.5 405.7C1260.6 405.9 1261.9 405 1262.2 403.9 1262.1 403 1261.4 402 1260.6 401.6L1249.8 399.6 1259.5 393.2 1290.5 399.7C1291.6 400 1292.6 399.3 1292.9 398.2 1293.1 397.1 1292.4 396.1 1291.3 395.9L1264.2 390.2 1275.9 382.5 1287.5 385C1288.7 385.2 1289.7 384.5 1289.9 383.4S1289.5 381.3 1288.4 381.1L1280.6 379.5 1289 374C1290 373.3 1290.2 372.2 1289.6 371.2 1288.9 370.2 1287.8 370 1286.8 370.6L1278.4 376.1 1279.8 368C1279.9 367.5 1280.1 366.9 1279.8 366.6 1279.6 366.2 1278.9 365.8 1278.3 365.7 1277.2 365.4 1276.2 366.1 1276 367.2L1273.7 379.2 1262 386.8 1267.5 359.4C1267.6 358.8 1267.7 358.3 1267.5 357.9 1267.3 357.6 1266.5 357.1 1266 357 1264.9 356.8 1263.8 357.4 1263.6 358.5L1257.3 389.9 1247.6 396.2 1250.2 385.5C1250.3 384.9 1249.8 384.3 1249.6 383.9 1249.4 383.6 1249.2 383.3 1248.6 383.1 1247.5 382.9 1246.2 383.8 1246.3 384.7L1242.9 399.3 1233.5 405.4 1232.8 394 1242.9 383.1C1243.3 382.3 1243.5 381.2 1243.1 380.5 1242.9 380.2 1242.9 380.2 1242.5 380.4 1241.9 379.4 1240.4 379.4 1239.7 380.4L1232.5 388.4 1231.7 377 1253.5 353.2C1253.9 352.5 1253.8 351.6 1253.4 350.9 1253.2 350.6 1253.2 350.6 1253.2 350.6 1252.2 349.8 1251.1 349.5 1250.3 350.5L1231.4 371.4 1230.9 357.5 1238.9 348.4C1239.6 347.4 1239.5 346.6 1239.1 345.9 1239.1 345.9 1238.9 345.5 1238.9 345.5 1237.9 344.8 1236.7 345.1 1236 345.5L1230.6 351.9 1230.2 341.7C1229.9 341.4 1229.7 341 1229.5 340.7 1229.3 340.4 1228.5 339.9 1228 339.8 1226.7 340.1 1225.7 340.8 1226.1 342L1226.5 352.2 1220.5 346.6C1219.5 345.8 1218.2 346.1 1217.6 346.6 1216.8 347.6 1217.1 348.8 1217.8 349.8L1226.8 357.7 1227.7 371.5 1207 353C1206 352.2 1204.5 352.2 1204.1 353 1203.3 354 1203.1 355.1 1204.1 355.9Z" fill="rgba(51, 121, 194, 0.58)"></path><path d="M702 187.9L708.1 180 710.9 186.1C711.1 186.8 712 187.2 713 187 713.7 186.5 714.2 185.6 714 184.9L710.5 176.7 716.2 169.4 723.2 186.1C723.7 187.1 724.6 187.5 725.3 187 726.3 186.8 726.7 185.9 726.2 184.8L718.6 166.5 723.6 159.7 743 162.1 746 169 732.9 185.7C732.8 186 732.8 186.3 732.8 186.6 732.7 187 733 187.6 733.2 188 734.1 188.7 735.1 188.6 735.5 187.6L747.5 172.4 750.9 180.9 745.1 188.9C744.7 188.8 744.7 189.1 744.7 189.4 744.6 190.1 744.8 190.8 745.4 191.2 746 191.6 747 191.4 747.7 190.8L752.4 184.3 756.9 194.9C757.1 195.5 758 196 759 195.8 759.7 195.2 760.2 194.3 759.9 193.6L755.7 183.8 762.4 184.6C763.3 184.7 764.1 183.8 764.2 183.2 764.3 182.3 763.8 181.2 762.8 181.1L754.2 180 750.8 171.5 768.6 173.8C769.5 173.9 770.3 173.3 770.4 172.4 770.5 171.4 769.9 170.7 769 170.6L749.3 168.1 746 160.9 758 145.3 765.3 146.3 773.2 165C773.4 166 774.7 166.5 775.4 165.9 776.4 165.7 776.5 164.8 776.3 163.8L769.1 146.7 778.3 147.9 781.8 156.4C782 157.1 783.2 157.6 783.9 157.3S785.1 155.9 784.9 154.9L782.1 148.4 793.2 149.8C794.2 149.9 795 149.1 795.1 148.1 795.2 147.5 794.6 146.4 793.7 146.3L782.6 144.9 786.9 139C787.3 138.4 787.4 137.5 786.5 136.7 785.9 136.3 784.6 136.5 784.2 137.1L778.8 144.4 769.6 143.3 780.8 128.6C781.2 127.6 781.3 126.7 780.5 125.9 779.9 125.5 778.6 125.7 778.2 126.3L765.8 142.8 758.5 141.8 750.7 123.8 755.7 117.6 775.4 120.1C776.4 120.2 777.1 119.7 777.2 118.7 777.3 117.8 776.8 116.8 775.8 116.6L758.1 114.4 763.5 107 772.1 108.1C773 108.2 773.8 107.7 773.9 106.7 774 105.8 773.4 105 772.5 104.9L765.8 104.1 772.4 95.6C772.8 95 772.6 93.6 772 93.2 771.1 92.8 770.2 92.7 769.7 93.6L762.8 102.4 759.9 95.2C759.3 94.5 758.4 94.1 757.7 94.3 757 94.6 756.6 95.2 756.6 95.8 756.6 95.8 756.5 96.1 756.8 96.5L760.5 105.6 755 113 747.3 95.3C747.1 94.3 746.2 93.8 745.1 94.3 744.8 94.6 744.4 94.9 744.3 95.5 744.3 95.9 744.3 96.2 744.2 96.5L752.7 116 748.1 121.8 728.7 119.4 725.5 111.5 737.5 95.6C738.3 94.8 738.1 93.8 737.2 93.3 736.6 92.6 735.6 92.8 734.9 93.7L724 108.1 720.3 99.6 725.7 92.5C726.1 91.9 725.9 90.9 725.3 90.2 724.4 89.8 723.5 89.7 723 90.6L718.8 95.8 714.8 86.6C714.6 85.6 713.7 85.5 712.7 85.7 712.3 86 711.9 86.6 711.8 87.2 711.8 87.2 711.8 87.5 711.8 87.8L716 97.7 708.1 96.7C707.4 96.7 706.4 97.2 706.3 98.1 706.1 99.1 707 99.8 707.7 99.9L717.5 101.2 721.2 109.7 701.9 107.2C700.9 107.1 700.2 108 700.1 108.9S700.5 110.6 701.4 110.7L722.7 113.4 725.7 120.6 713.7 136.2 705.4 135.1 697.5 116C697 115.3 696.1 114.9 695.1 115.1 694.7 115.4 694.3 116 694.2 116.6 694.2 116.9 694.2 117.2 694.4 117.6L701.6 134.6 692.4 133.5 688.7 124.9C688.4 124.2 687.5 123.8 686.5 124 685.8 124.6 685.4 125.5 685.6 126.1L688.6 133 678.5 131.7C677.8 131.6 676.7 132.4 676.7 133.1 676.5 134 677.4 135.1 678 135.2L688.2 136.5 683.6 142C683.6 142.3 683.5 142.6 683.5 143 683.4 143.6 683.6 144.3 683.9 144.6 684.8 145.1 685.8 144.9 686.5 144.3L692 136.9 701.2 138.1 690 152.8C689.2 153.7 689.4 154.7 690 155.1 690.9 155.8 691.9 155.6 692.6 155.1L705 138.6 713.2 139.6 721 157.7 716.3 163.9 695 161.2C694.1 161.1 693.4 161.6 693.2 162.6 693.1 163.5 693.7 164.3 694.6 164.4L714 166.8 708.2 174.2 698.4 172.9C697.7 172.8 696.7 173.7 696.5 174.6 696.4 175.6 697.3 176.3 697.9 176.4L705.9 177.4 699.3 185.9C699.3 186.3 699.3 186.3 699.2 186.6 699.1 187.2 699.4 187.9 699.7 188.2 700.6 188.7 701.6 188.5 702 187.9ZM717.1 140.1L716.3 138.1 717.5 136.6 727.2 124 728.3 122.5 730.2 122.8 745.8 124.8 747.7 125 748.4 126.7 754.6 141.4 755.4 143.1 754.2 144.9 744.6 157.2 743.4 159 741.5 158.7 725.9 156.7 724 156.5 723.3 154.5 717.1 140.1Z" fill="rgba(51, 121, 194, 0.58)"></path><path d="M267.1 417.4L239.4 452.5 223.2 454.1 232.6 442.3C233.9 441.3 233.4 439.6 232.4 438.2 231.3 437.7 229.2 437.8 228.7 438.9L215.5 454.9 199.5 456.9 206.1 442.3 225.7 434.8C225.7 434.8 226.1 434.5 226.1 434.5 227 433.8 227.3 432.3 227 431 226 429.7 224.9 429.1 223.2 429.7L209.2 435.2 215.8 420.5 257.1 403.9C257.1 403.9 257.9 404 257.9 404 258.8 403.4 259 401.8 258.8 400.6 258.3 398.9 256.4 398.2 255 399.2L218.9 413.4 226.4 395.3 242.6 388.9C242.6 388.9 242.6 388.9 243 388.6 243.9 387.9 244.5 386.8 244.3 385.6 243.3 384.2 241.8 383.2 240.1 383.7L229.5 388.2 235 375C236.1 373.5 235.1 372.2 233.9 371.6 232.5 370.6 230.8 371.1 230.1 373L224.2 385.8 220.6 375.2C219.6 373.9 218.1 372.8 216.8 373.8 215.1 374.4 214.5 375.5 215.1 377.2L221.5 393.4 213.6 411 199.1 374.4C198.9 373.2 197 372.5 195.3 373 194.4 373.7 193.4 375.1 193.9 376.8L210.6 418.2 204 432.8 198.5 418.7C197.9 417.1 196.3 416.8 194.7 417.4 193.4 417.6 192.7 419.5 192.9 420.7L200.9 439.9 194.6 455 185 441.9 188 421.6C188.3 420 187.3 418.7 185.7 418.4 184.6 417.9 182.8 419.2 182.5 420.8L180.3 435.6 170.6 422.6 177.7 378.4C177.9 376.8 176.9 375.5 175.3 375.2 173.8 375 172.4 376 172.2 377.6L166 416.3 154.7 401 157.2 383.7C157.5 382.2 156.5 380.8 154.9 380.6 153.4 380.4 152 381.4 151.8 382.9L149.7 394.2 141.3 383C140.4 381.6 138.8 381.4 137.4 382.4 136.1 383.4 135.8 384.9 136.8 386.3L145.2 397.5 134.2 395.9C132.6 395.7 131.3 396.7 131.1 398.2S131.8 401.2 133.4 401.4L149.8 403.9 161.5 419.6 123.1 413.9C121.5 413.6 120.2 414.6 120 416.2 119.7 417.8 120.7 419.1 122.3 419.3L166.1 425.9 175.8 439 160.9 436.7C159.4 436.5 158 437.5 157.8 439.1 157.5 440.6 158.5 442 160.1 442.2L180.5 445.3 189.8 457.9 174.3 459.6 157.8 446.7C156.7 446.1 154.7 446.2 154.1 447.3 153.1 448.8 153.3 450 154.3 451.4L166.1 460.7 150.7 462.4 115.6 434.8C114.1 433.7 112.9 434 111.5 435 110.5 436.4 111.1 438.1 111.7 439L142.5 463.6 123 465.5 109.7 455.1C108.7 453.7 107 454.3 105.7 455.3 105.1 456.4 105.2 458.4 106.7 459.4L115.2 466.3 101.3 468.3C99.8 468 98.8 469.5 98.9 471.5 99.1 472.7 100.5 473.7 101.8 473.5L116 472.1 108.6 481C107.6 482.4 108.2 484.1 109.3 484.7 110.3 486 111.5 485.8 112.4 485.1 112.9 484.8 112.9 484.8 113.3 484.5L123.7 471.2 143.2 469.3 119 499.7C117.7 500.7 118.2 502.4 119.2 503.8 120.4 504.3 121.6 504.1 122.5 503.5 122.9 503.1 122.9 503.1 122.9 503.1L151.4 468.2 166.9 466.5 157.5 478.3C156.5 479.7 156.7 481 157.7 482.3 158.8 482.9 160.4 483.1 161.3 482.4 161.7 482.1 161.7 482.1 162.2 481.8L175.1 465.3 190.5 463.6 184.4 477.9 165.2 485.8C163.5 486.4 162.8 488.3 163 489.5 164 490.9 165.5 491.9 166.8 490.9L180.9 485.4 175 500.1 132.9 516.6C131.7 516.9 131 518.8 131.2 520 132.2 521.3 133.7 522.4 135.4 521.8L171.5 507.6 163.7 525.2 148 531.3C146.3 531.8 145.6 533.7 146.6 535.1 146.8 536.3 148.3 537.3 149.9 536.8L160.6 532.4 155 545.6C154.5 546.7 155 548.4 156.5 549.4 157.2 549.5 158.5 549.3 159.4 548.6 159.4 548.6 159.8 548.3 160.3 548L165.9 534.8 170.3 545.4C170.5 546.7 172.4 547.4 173.6 547.2 174.1 546.8 174.1 546.8 174.1 546.8 175.4 545.8 175.6 544.3 175 543.4L168.9 527.6 176.4 509.5 191 546.2C192 547.5 193.1 548.1 194.8 547.5 194.8 547.5 195.2 547.2 195.2 547.2 196.1 546.5 196.7 545.4 196.1 543.7L180 502.1 186.1 487.8 191.6 501.8C192.6 503.2 194.1 504.2 195.4 503.2 195.7 503.6 196.2 503.3 196.2 503.3 197.1 502.6 197.3 501.1 197.1 499.8L189.2 480.6 195.8 466 205.1 478.6 202 499C201.8 500.5 203.1 502.3 204.7 502.6 205.9 502.3 207.3 501.3 207.9 500.2L209.8 484.9 219.4 498 212.8 541.8C212.6 543.4 213.6 544.7 215.2 545 216.7 545.2 218.1 544.2 218.3 542.6L224.1 504.3 235.7 520 233.3 536.5C233 538 234 539.4 235.6 539.6S238.5 538.9 238.7 537.3L240.4 526.3 248.7 537.6C249.7 538.9 251.3 539.2 252.6 538.2 254 537.2 254.2 535.6 253.2 534.3L244.9 523 256.3 524.3C257.1 524.4 257.9 524.5 258.3 524.2 258.8 523.9 259.3 522.8 259.5 522 259.7 520.4 258.7 519.1 257.1 518.8L240.2 516.7 228.6 500.9 267.4 506.3C268.2 506.5 269 506.6 269.4 506.3 269.9 505.9 270.4 504.8 270.6 504 270.8 502.5 269.8 501.1 268.2 500.9L223.9 494.6 214.3 481.6 229.5 484.3C230.3 484.4 231.2 483.7 231.6 483.4 232.1 483 232.5 482.7 232.6 481.9 232.9 480.4 231.5 478.6 230.3 478.8L209.6 475.3 200.3 462.7 216.2 460.6 232.2 473.9C233.4 474.4 234.9 474.7 235.8 474 236.3 473.7 236.3 473.7 235.9 473.2 237.3 472.2 237.2 470.2 235.7 469.2L223.9 459.8 239.9 457.8 274.8 486.2C275.9 486.8 277.2 486.6 278.1 485.9 278.5 485.6 278.5 485.6 278.5 485.6 279.5 484.1 279.8 482.6 278.3 481.6L247.6 456.9 267.1 455.1 280.3 465.4C281.8 466.5 283 466.2 283.9 465.6 283.9 465.6 284.4 465.2 284.4 465.2 285.4 463.8 284.8 462.1 284.2 461.2L274.8 454.2 289.1 452.7C289.5 452.4 290 452.1 290.4 451.7 290.9 451.4 291.4 450.3 291.5 449.5 291 447.8 290 446.5 288.3 447L274.1 448.5 281.4 439.6C282.4 438.1 281.9 436.4 281.2 435.5 279.8 434.5 278.1 435.1 276.7 436.1L266.3 449.3 247.2 451.7 271.3 421.3C272.4 419.8 272.3 417.8 271.2 417.2 269.7 416.2 268.1 416 267.1 417.4Z" fill="rgba(51, 121, 194, 0.58)"></path><path d="M1042.8 326.5L1022.2 343.2 998.6 340.6 1012.6 321.5 1038.9 317.7C1038.9 317.7 1039.2 317.5 1039.2 317.5 1039.8 317.3 1040.1 316.4 1040.2 315.7 1040.1 314.7 1039.1 314.1 1038.2 314.5L1015.3 317.9 1022 308.7 1032.1 307C1032.1 307 1032.4 306.9 1032.4 306.9 1033 306.6 1033.4 305.8 1033.4 305.1 1033.3 304.1 1032.3 303.4 1031.4 303.8L1024.5 304.8 1029.6 298C1030 297.4 1029.8 296.1 1029.3 295.7 1028.6 294.9 1027.4 295.5 1027 296L1021.9 302.8 1021 295.8C1020.9 294.8 1019.9 294.2 1019 294.6 1018 294.7 1017.4 295.7 1017.8 296.5L1019.4 306.7 1012.5 315.6 1009.1 292.7C1009 291.7 1008 291 1007.1 291.4 1006.1 291.5 1005.5 292.5 1005.9 293.4L1009.7 319.6 995.7 338.7 986.1 316.7 995.8 291.9C996.1 291 995.7 290.1 994.9 289.8 994.1 289.5 993.2 289.9 992.8 290.7L984.3 312.6 979.7 302.1 983.3 292.8C983.6 292 983.2 291.1 982.4 290.8 981.5 290.4 980.7 290.8 980.3 291.7L977.9 298 974.3 289.8C974.2 288.8 973 288.6 972.2 289 971.3 289.3 970.9 290.2 971.3 291.1L974.7 298.7 968.4 296.2C967.5 295.9 966.6 296.3 966.3 297.1S966.4 298.8 967.2 299.2L976.5 302.8 981.1 313.3 959.2 304.8C958.3 304.5 957.5 304.8 957.1 305.7 956.8 306.5 957.2 307.4 958 307.7L982.9 317.4 992.4 339.1 968.9 336.5 952.7 316.3C952 315.6 951 315.7 950.2 316.1 949.4 316.8 949.5 317.8 949.9 318.6L964.5 336.7 953.1 335.4 946.7 327.4C946 326.6 945 326.7 944.2 327.1 943.4 327.8 943.5 328.8 943.8 329.4L948.2 334.8 939.8 333.9C939.1 333.9 937.9 334.4 938 335.4 938.1 336.4 938.5 337.3 939.5 337.2L947.9 338 942.5 342.5C941.8 343.2 941.9 344.2 942.1 344.8 942.7 345.2 943.5 345.5 944.1 345.3 944.1 345.3 944.4 345.2 944.4 345.2L952.5 338.8 963.9 340.1 945.8 354.7C945 355.4 945.1 356.4 945.4 357 945.9 357.4 946.8 357.7 947.4 357.5 947.4 357.5 947.7 357.4 947.7 357.4L968.3 340.6 991.8 343.2 977.8 362.3 951.5 366.2C950.5 366.2 949.9 367.2 950.3 368.1 950.4 369.1 951.3 369.7 952.2 369.3L975.2 365.9 968.4 375.2 958.3 376.8C957.3 376.9 956.7 377.9 957 378.8 957.1 379.8 958.1 380.4 959 380L965.9 379.1 960.8 385.8C960.4 386.4 960.6 387.7 961.2 388.1 961.7 388.6 962.4 388.6 963 388.4 963.3 388.2 963.6 388.1 963.8 387.7L968.8 380.9 969.8 387.8C969.9 388.9 970.8 389.5 971.7 389.1 971.7 389.1 972 389 972 389 972.6 388.7 972.9 387.9 973 387.1L971.3 377 978.1 367.8 981.5 390.7C981.6 391.7 982.6 392.4 983.5 392 983.5 392 983.8 391.8 983.8 391.8 984.3 391.6 984.7 390.7 984.7 390L980.9 363.8 994.9 344.7 1004.4 366.4 994.7 391.2C994.3 392.1 994.7 393 995.6 393.3 996.4 393.6 997.3 393.2 997.6 392.4L1006.3 370.8 1010.9 381.3 1007.3 390.6C1007 391.4 1007.4 392.3 1008.2 392.6S1009.9 392.6 1010.3 391.7L1012.7 385.4 1016.1 393C1016.5 393.9 1017.3 394.2 1018.2 393.9 1019.1 393.5 1019.4 392.6 1019 391.8L1015.7 384.1 1022 386.6C1022.4 386.8 1022.8 386.9 1023.4 386.7S1024.2 386 1024.3 385.6C1024.7 384.7 1024.3 383.8 1023.4 383.5L1014.2 379.9 1009.5 369.4 1031.5 377.9C1031.9 378.1 1032.3 378.2 1032.9 378 1033.2 377.8 1033.6 377.3 1033.8 376.9 1034.1 376 1033.7 375.2 1032.9 374.8L1008 365.1 998.5 343.4 1022 346.1 1038.7 366.7C1039.3 367.1 1040.1 367.5 1040.7 367.2 1040.7 367.2 1041 367.1 1041 367.1 1041.8 366.4 1041.7 365.4 1041.4 364.8L1026.9 346.7 1038.3 348 1044.6 356.1C1045.1 356.5 1046 356.9 1046.6 356.6 1046.6 356.6 1046.9 356.5 1046.9 356.5 1047.6 355.8 1047.5 354.8 1047.3 354.2L1042.8 348.8 1051.2 349.7C1051.5 349.5 1051.9 349.7 1052.2 349.6 1052.8 349.3 1053.3 348.8 1053.3 348.1 1053.2 347 1052.8 346.2 1051.8 346.3L1043.4 345.4 1048.8 340.9C1049.5 340.3 1049.4 339.3 1049.2 338.7 1048.5 337.9 1047.5 338 1046.9 338.3L1038.9 344.6 1027.5 343.3 1045.5 328.7C1046.3 328.1 1046.2 327.1 1045.9 326.5 1044.7 326 1043.5 325.8 1042.8 326.5Z" fill="rgba(51, 121, 194, 0.58)"></path><path d="M211.9 141.6L202.6 147.7 201.9 141C201.9 140.3 201.2 139.6 200.1 139.5 199.3 139.8 198.6 140.5 198.9 141.4L199.5 149.8 192.4 155 191.2 137.4C190.9 136.5 190.2 135.8 189.5 135.8 188.3 136 187.6 136.7 187.9 137.6L189.3 157 178.3 164.5 178.9 149.2 167.3 159.3 166.2 146 182.2 134.8C182.5 135 182.6 134.7 182.7 134.4 183 133.8 183 133.1 182.6 132.5 182.1 132 181.1 131.8 180.3 132.1L165.8 142.3 165.4 133.5 172.3 128.7C172.8 128.5 172.9 128.3 173 128 173.2 127.7 173.2 127 172.7 126.4 172.3 125.8 171.3 125.7 170.7 126.2L165 129.8 164 118.7C164.1 117.7 163.2 117.3 162.2 117.1 161.5 117.2 160.8 117.9 161 119L161.8 130 155.7 127.1C154.8 126.7 153.8 127.3 153.6 127.9 153.1 128.8 153.4 129.6 154.3 130L162.1 133.8 162.6 142.5 147 135C146.1 134.6 145.2 134.9 144.8 135.8 144.6 136.4 144.7 137.5 145.6 137.9L162.9 146.2 164 159.5 151.1 151.6 154 166.4 141.9 160.6 140.4 141.5C140.2 140.3 139.3 139.9 138.6 139.9 137.9 139.9 137.2 140.7 137.1 141.7L138.7 159.1 130.9 155.4 130 146.8C130.1 145.8 129.4 145.1 128.3 145.3 127.5 145.3 126.8 146 127 147.1L127.4 153.7 117.3 148.9C116.4 148.5 115.6 148.8 115.2 149.6S115.1 151.4 115.9 151.8L126 156.6 120.7 160.4C119.7 161 119.6 162 120 162.6 120.6 163.6 121.6 163.7 122.3 163L129.5 158.3 137.3 162 122.7 171.7C122 172.4 121.9 173.4 122.3 174 122.9 175 123.9 175.1 124.6 174.4L140.5 163.5 152.6 169.3 139.3 176.4 153.5 181.4 142.5 188.9 125.2 180.7C124.3 180.3 123.3 180.8 123.1 181.4 122.6 182.3 122.9 183.1 123.8 183.6L139.7 191.1 132.3 196.1 124.5 192.4C123.7 192 122.8 192.3 122.4 193.2 122.1 193.7 122.3 194.9 123.2 195.3L129.2 198.2 120.2 204.5C119.2 205.1 119.1 206.1 119.8 206.8 120.2 207.4 121.1 207.8 121.8 207.1L131.1 200.9 131.8 207.6C131.9 208.3 132.6 209 133.3 209 134 209 134.6 208.5 134.7 208.3 134.9 208 135 207.7 134.8 207.3L134.3 198.8 141.3 193.7 142.5 211.3C142.8 212.1 143.5 212.8 144.2 212.8 145 212.8 145.5 212.4 145.8 211.8 145.9 211.5 145.9 211.5 145.8 211.1L144.4 191.6 155.5 184.1 154.9 199.4 166.4 189.4 167.5 202.6 151.6 213.8C151 214.3 150.6 215.1 151.2 216.1 151.6 216.7 152.6 216.8 153.5 216.5L167.9 206.4 168.3 215.1 161.4 219.9C160.6 220.2 160.4 221.2 161 222.2 161.5 222.8 162.5 222.9 163.3 222.6L168.7 218.8 169.8 229.9C169.6 230.9 170.5 231.4 171.5 231.5 171.9 231.3 172.5 230.9 172.6 230.6 172.8 230.3 172.9 230 172.8 229.6L172 218.6 178 221.5C178.9 221.9 179.9 221.3 180.2 220.7L180.2 220.7C180.6 219.9 180.3 219 179.4 218.6L171.6 214.9 171.2 206.2 186.8 213.6C187.6 214 188.5 213.7 188.9 212.8S189 211.1 188.1 210.7L170.8 202.4 169.7 189.1 182.6 197.1 179.8 182.2 191.9 188 193.4 207.2C193.5 208.3 194.4 208.7 195.1 208.7 195.8 208.7 196.5 208 196.7 207L195.3 189.7 202.9 193.3 203.7 201.8C203.6 202.8 204.3 203.5 205.5 203.4 206.2 203.4 206.9 202.6 207 201.6L206.3 194.9 216.4 199.7C217.3 200.2 218.2 199.8 218.6 199S218.7 197.3 217.8 196.8L207.7 192 213.1 188.2C213.5 188.1 213.6 187.8 213.8 187.5 214 186.9 213.9 186.5 213.7 186 213.2 185.1 212.2 184.9 211.4 185.7L204.2 190.4 196.4 186.7 211 176.9C211.1 176.6 211.3 176.4 211.4 176.1 211.7 175.5 211.5 175.1 211.4 174.6 210.8 173.6 209.8 173.5 209.1 174.3L193.3 185.1 181.1 179.3 194.5 172.2 180.2 167.2 191.2 159.7 208.5 168C209.4 168.4 210.4 167.8 210.7 167.2 211.1 166.3 210.8 165.5 209.9 165.1L194.3 157.6 201.4 152.5 209.2 156.2C210.1 156.6 210.9 156.3 211.3 155.5S211.4 153.7 210.6 153.3L204.5 150.4 213.5 144.1C214 144 214.1 143.7 214.2 143.4 214.4 143.1 214.4 142.4 213.9 141.8 213.5 141.3 212.6 140.8 211.9 141.6ZM186.7 172.8L175.8 178.6 178.2 190.7 167.5 184.2 158.3 192.2 158.5 179.9 147 175.8 157.9 170 155.5 157.9 166 164.3 175.4 156.4 174.9 168.6 186.7 172.8Z" fill="rgba(51, 121, 194, 0.58)"></path><path d="M485.6 171.9L512.2 152.3 521.3 153.5 528.8 172.4 523.1 179.9 490.1 183.4C489.8 183.6 489.8 183.6 489.4 183.7 488.6 184 488 184.7 488.1 185.9 488.6 187.1 489.2 187.7 490.5 187.6L519.3 184.4 510.4 195.6 497.7 197.2C497.7 197.2 497.3 197.3 497.3 197.3 496.6 197.6 496 198.3 496.1 199.6 496 200.5 497.2 201.3 498.4 201.2L506.8 200.5 500.1 208.7C499.5 209.4 499.6 210.7 500.4 211.6S502.7 212 503.7 211.2L510 203.1 511 211.3C511.1 212.6 512.3 213.4 513.5 213.3 514.3 213 515.3 212.2 515.2 210.9L513.6 198.2 522.9 186.8 526.1 215.7C526.2 216.9 527.3 217.8 528.2 217.8 529.4 217.4 530.3 216.6 530.3 215.3L526.3 182.5 532.4 174.9 552 177.9 555.6 186.8 542.6 217.3C542.2 218.3 542.6 219.5 543.7 219.9S545.8 219.9 546.3 218.9L557.6 192 563 205.8 558.1 217.2C557.6 218.3 558.1 219.4 559.3 220.2S561.4 220.2 561.9 219.2L565.1 211 569.1 221C569.5 222.2 570.9 222.5 572 222 573.2 221.6 573.6 220.5 573.2 219.4L569.2 209.4 577 212.8C578.2 213.6 579.3 213.1 579.6 211.7 580 210.7 579.6 209.6 578.6 209.1L567.1 204.2 561.7 190.4 588.3 202.3C589.4 202.7 590.8 202.1 591.3 201.1S591.3 198.9 590.3 198.5L559.6 185.2 556.1 176.3 568.8 160.5 578 162 597.6 188.7C598.4 189.7 599.7 189.6 600.8 189.2 601.7 188.4 601.7 187.1 601.2 186L583.9 162.7 598.1 164.9 605.6 175.2C606.4 176.2 607.7 176.1 608.8 175.7 609.4 175 609.7 173.6 608.9 172.6L604.1 165.9 614.5 167.4C615.4 167.5 616.4 166.7 616.8 165.6 616.8 164.4 616 163.4 615.1 163.3L604.6 161.8 611.5 156.5C612.1 155.9 612.4 154.5 611.8 153.9 611.3 152.7 610.4 152.7 609.3 153.1 609.3 153.1 609 153.3 609 153.3L598.6 160.8 584.4 158.6 607.7 141.3C608.6 140.5 609.1 139.4 608.3 138.5 607.5 137.5 606.6 137.4 605.8 137.7 605.5 137.9 605.5 137.9 605.5 137.9L578.6 158 569.3 156.4 561.9 137.5 567.7 130.4 600.9 126.3C601.8 126.4 602.6 125.2 602.7 124.3 602.6 123.1 601.4 122.2 600.2 122.3L571.3 125.5 580.2 114.3 592.9 112.7C594.2 112.6 595.2 111.8 594.7 110.7 594.7 109.4 593.5 108.6 592.6 108.5L584 109.8 590.7 101.6C591.1 100.5 591.1 99.2 590.2 98.3 589.7 98.1 588.8 98 588.1 98.3 587.7 98.4 587.7 98.4 587.5 98.9L580.8 107.2 579.6 98.6C579.5 97.3 578.5 96.9 577.6 96.8 577.2 97 577.2 97 576.9 97.1 576.1 97.4 575.5 98.1 575.5 99L577 111.7 568.2 122.9 564.9 94.1C564.5 93 563.7 92 562.6 92.4 562 92.2 562 92.2 561.7 92.4 560.9 92.7 560.5 93.7 560.4 94.6L564.5 127.8 558.7 134.8 538.6 132 535.2 123.5 548.5 92.8C549 91.8 548.4 90.3 547.3 89.9S544.8 90 544.4 91L533 117.9 527.7 104.5 532.6 92.7C533 91.7 532.6 90.5 531.5 90.1 530.5 89.6 529.4 90.1 528.9 91.1L525.5 98.9 521.6 88.9C521.3 88.1 520.1 87.3 519 87.7 517.9 88.2 517.2 89.7 517.5 90.5L521.5 100.5 513.7 97.1C513.1 96.9 512.6 96.7 512.3 96.8 511.5 97.1 511.3 97.7 511.1 98.2 510.6 99.2 511.1 100.3 512.1 100.8L523.7 106.1 528.9 119.5 502.3 107.6C501.8 107.4 501.4 107.6 500.7 107.9 500.3 108 500 108.2 499.7 108.7 499.3 109.7 499.9 111.2 500.9 111.6L531.2 125.1 534.5 133.6 522.2 149.2 512.8 148.2 493.1 121.2C492.4 120.6 491.4 120.1 490.6 120.4 490.2 120.6 490.2 120.6 490.4 121 489.3 121.4 489 122.8 489.8 123.8L507.1 147 492.6 145 485.1 134.7C484.4 134.1 483.5 134 482.8 134.3 482.8 134.3 482.4 134.4 482.4 134.4 481.3 134.9 481 136.3 481.8 137.3L487.1 144.2 476.6 142.7C476.1 142.5 475.7 142.7 475.4 142.8 474.6 143.1 474 143.8 474.2 144.1 473.9 145.6 474.7 146.5 475.7 147L486.2 148.4 479.5 153.2C478.5 154 478.2 155.4 479 156.4 479.7 157 481.1 157.3 481.7 156.7L492.1 149.1 506.2 151.3 483 168.6C482 169.4 482.1 170.7 482.5 171.8 483.2 172.4 484.6 172.7 485.6 171.9ZM532 168.6L526.3 154.1 525.4 151.9 526.8 150 536.3 138.1 538.1 136.1 540.4 136.5 555.5 138.7 557.8 139.1 558.6 141.3 564.4 155.8 565.3 158 563.8 159.9 554.4 171.8 552.9 173.7 550.3 173.4 535.2 171.2 532.9 170.8 532 168.6Z" fill="rgba(51, 121, 194, 0.58)"></path></g><defs><mask id="SvgjsMask1002"><rect width="1440" height="560" fill="#ffffff"></rect></mask><filter id="SvgjsFilter1003"><feGaussianBlur stdDeviation="1"></feGaussianBlur></filter></defs></svg>