<?xml version="1.0" ?><svg viewBox="0 0 64 64" xmlns="http://www.w3.org/2000/svg"><title/><g data-name="Layer 2" id="Layer_2"><circle cx="32" cy="32" r="27.758" style="fill:#f9bf44"/></g><g data-name="Layer 1" id="Layer_1"><path d="M42.19,38.94a2.127,2.127,0,0,0-.11-.21c-.08-.13-.16-.26-.25-.39l-.56.35-1.1.75a2.394,2.394,0,0,1,.19.29,5.465,5.465,0,0,1,.41.89,12.333,12.333,0,0,1-6.15,3.32,5.46,5.46,0,0,1-.42-.61,3.253,3.253,0,0,1-.26-.53.994.994,0,0,0-1.84.75c.1.23.21.45.33.67a.47.47,0,0,0,.05.1,6.644,6.644,0,0,0,3.56,2.98,5.644,5.644,0,0,0,1.83.32,5.091,5.091,0,0,0,2.56-.69C43.01,45.43,43.77,41.88,42.19,38.94Z" style="fill:#f6262f"/><path d="M31.892,44.243a12.581,12.581,0,0,1-11.368-7.079,1,1,0,1,1,1.795-.881,10.668,10.668,0,0,0,19.146,0,1,1,0,1,1,1.795.881A12.581,12.581,0,0,1,31.892,44.243Z" style="fill:#382a12"/><path d="M39.643,31.02a1,1,0,0,1-.5-1.868l6.125-3.5a1,1,0,1,1,.992,1.736l-6.125,3.5A.991.991,0,0,1,39.643,31.02Z" style="fill:#382a12"/><path d="M46.04,33.794a.991.991,0,0,1-.4-.083l-6.4-2.774a1,1,0,1,1,.8-1.834l6.4,2.774a1,1,0,0,1-.4,1.917Z" style="fill:#382a12"/><path d="M24.62,31.02a.991.991,0,0,1-.5-.132L18,27.388a1,1,0,0,1,.992-1.736l6.125,3.5a1,1,0,0,1-.5,1.868Z" style="fill:#382a12"/><path d="M18.223,33.794a1,1,0,0,1-.4-1.917l6.4-2.774a1,1,0,1,1,.8,1.834l-6.4,2.774A.991.991,0,0,1,18.223,33.794Z" style="fill:#382a12"/></g></svg>